<?xml version="1.0" encoding="UTF-8" standalone="no"?>
<!DOCTYPE svg PUBLIC "-//W3C//DTD SVG 1.1//EN"
 "http://www.w3.org/Graphics/SVG/1.1/DTD/svg11.dtd">
<!-- Generated by graphviz version 2.43.0 (0)
 -->
<!-- Title: finite_state_machine Pages: 1 -->
<svg width="283pt" height="174pt"
 viewBox="0.00 0.00 283.00 173.50" xmlns="http://www.w3.org/2000/svg" xmlns:xlink="http://www.w3.org/1999/xlink">
<g id="graph0" class="graph" transform="scale(1 1) rotate(0) translate(4 169.5)">
<title>finite_state_machine</title>
<polygon fill="white" stroke="transparent" points="-4,4 -4,-169.5 279,-169.5 279,4 -4,4"/>
<!-- Menu -->
<g id="node1" class="node">
<title>Menu</title>
<polygon fill="none" stroke="black" points="57,-117.5 0,-117.5 0,-60.5 57,-60.5 57,-117.5"/>
<text text-anchor="middle" x="28.5" y="-85.3" font-family="Times,serif" font-size="14.00">Menu</text>
</g>
<!-- Game -->
<g id="node2" class="node">
<title>Game</title>
<polygon fill="none" stroke="black" points="151,-156 93,-156 93,-98 151,-98 151,-156"/>
<text text-anchor="middle" x="122" y="-123.3" font-family="Times,serif" font-size="14.00">Game</text>
</g>
<!-- Menu&#45;&gt;Game -->
<g id="edge1" class="edge">
<title>Menu&#45;&gt;Game</title>
<path fill="none" stroke="black" d="M57.45,-100.61C65.71,-104.04 74.89,-107.85 83.64,-111.48"/>
<polygon fill="black" stroke="black" points="82.33,-114.73 92.91,-115.33 85.01,-108.26 82.33,-114.73"/>
</g>
<!-- Pause -->
<g id="node3" class="node">
<title>Pause</title>
<polygon fill="none" stroke="black" points="260.5,-165.5 201.5,-165.5 201.5,-106.5 260.5,-106.5 260.5,-165.5"/>
<text text-anchor="middle" x="231" y="-132.3" font-family="Times,serif" font-size="14.00">Pause</text>
</g>
<!-- Game&#45;&gt;Pause -->
<g id="edge2" class="edge">
<title>Game&#45;&gt;Pause</title>
<path fill="none" stroke="black" d="M151.11,-123.34C163.33,-123.61 177.84,-124.67 191.07,-126.2"/>
<polygon fill="black" stroke="black" points="190.96,-129.72 201.33,-127.53 191.86,-122.78 190.96,-129.72"/>
</g>
<!-- EndScene -->
<g id="node4" class="node">
<title>EndScene</title>
<polygon fill="none" stroke="black" points="275,-88 187,-88 187,0 275,0 275,-88"/>
<text text-anchor="middle" x="231" y="-40.3" font-family="Times,serif" font-size="14.00">EndScene</text>
</g>
<!-- Game&#45;&gt;EndScene -->
<g id="edge4" class="edge">
<title>Game&#45;&gt;EndScene</title>
<path fill="none" stroke="black" d="M151.11,-105.19C159.63,-98.59 169.26,-91.12 178.79,-83.72"/>
<polygon fill="black" stroke="black" points="180.99,-86.44 186.75,-77.55 176.7,-80.91 180.99,-86.44"/>
</g>
<!-- Pause&#45;&gt;Game -->
<g id="edge3" class="edge">
<title>Pause&#45;&gt;Game</title>
<path fill="none" stroke="black" d="M201.33,-139.65C189.05,-139.35 174.52,-138.28 161.33,-136.73"/>
<polygon fill="black" stroke="black" points="161.48,-133.22 151.11,-135.39 160.57,-140.16 161.48,-133.22"/>
</g>
<!-- EndScene&#45;&gt;Menu -->
<g id="edge5" class="edge">
<title>EndScene&#45;&gt;Menu</title>
<path fill="none" stroke="black" d="M186.93,-53.67C151.38,-61.64 101.44,-72.85 67.4,-80.49"/>
<polygon fill="black" stroke="black" points="66.37,-77.14 57.38,-82.74 67.9,-83.97 66.37,-77.14"/>
</g>
</g>
</svg>
